<?xml version="1.0" standalone="no"?>
<!DOCTYPE svg PUBLIC "-//W3C//DTD SVG 20010904//EN"
 "http://www.w3.org/TR/2001/REC-SVG-20010904/DTD/svg10.dtd">
<svg version="1.0" xmlns="http://www.w3.org/2000/svg"
 width="260.000000pt" height="260.000000pt" viewBox="0 0 260.000000 260.000000"
 preserveAspectRatio="xMidYMid meet">
<metadata>
Created by potrace 1.11, written by Peter Selinger 2001-2013
</metadata>
<g transform="translate(0.000000,260.000000) scale(0.100000,-0.100000)"
fill="#000000" stroke="none">
<path d="M181 2539 c-17 -75 -9 -376 12 -461 13 -51 12 -63 -1 -104 l-15 -47
-19 23 c-10 12 -18 31 -18 41 0 11 -7 22 -15 25 -9 4 -14 17 -12 36 3 44 -16
44 -38 1 -17 -35 -26 -79 -41 -208 -7 -62 15 -173 50 -245 14 -29 28 -72 30
-94 2 -23 7 -53 11 -68 5 -18 3 -28 -4 -28 -22 0 -10 -57 21 -105 29 -44 198
-195 218 -195 5 0 12 -9 15 -21 4 -11 18 -24 31 -29 23 -9 24 -13 24 -110 0
-56 5 -144 12 -196 10 -87 10 -95 -7 -107 -24 -18 -12 -61 15 -52 15 5 22 -4
36 -49 l17 -55 -31 -26 c-39 -33 -112 -165 -112 -204 0 -16 4 -41 9 -54 8 -20
3 -32 -32 -75 -23 -28 -52 -70 -65 -92 l-23 -40 528 0 528 1 -90 29 c-50 16
-100 38 -110 47 -11 10 -47 29 -80 42 -33 13 -73 32 -90 42 -34 20 -157 67
-195 75 -14 3 -42 9 -63 15 -21 6 -81 12 -133 13 -84 3 -97 1 -107 -15 -17
-27 -47 -25 -47 4 0 36 13 46 69 57 43 8 72 6 154 -11 55 -11 112 -26 128 -34
15 -8 41 -15 56 -15 15 0 66 -13 113 -30 47 -16 76 -22 66 -14 -11 7 -25 14
-31 14 -7 0 -19 8 -28 18 -15 16 -15 21 -3 38 12 16 32 20 133 26 65 4 129 9
143 10 14 1 36 0 50 -3 16 -2 24 0 23 8 -2 8 6 9 30 2 17 -5 44 -9 59 -9 15 0
32 -8 37 -17 7 -12 13 -14 18 -7 5 6 17 14 28 18 19 7 18 9 -10 24 l-30 17 27
3 c56 7 141 -55 191 -139 18 -31 49 -75 68 -98 30 -34 42 -41 73 -41 21 0 46
-5 58 -11 21 -11 21 -14 3 49 -4 14 -12 21 -21 18 -7 -3 -16 -1 -19 4 -4 6 1
10 10 10 18 0 17 10 -7 112 l-11 46 55 54 c32 31 66 78 82 112 30 63 57 136
51 136 -2 0 -18 -26 -36 -57 -66 -119 -90 -151 -120 -162 -16 -5 -35 -8 -42
-6 -7 2 -41 6 -77 9 -94 7 -147 21 -232 61 l-75 35 -19 82 c-21 96 -27 373 -8
386 6 4 15 15 21 25 9 17 11 16 21 -10 6 -15 18 -55 28 -87 10 -33 27 -69 38
-82 39 -41 146 -50 146 -12 0 7 -5 6 -15 -2 -21 -17 -93 -6 -115 17 -9 10 -22
42 -28 71 -7 30 -23 82 -37 116 -49 122 -12 245 114 380 128 136 161 178 161
201 0 60 49 37 105 -47 l47 -70 -17 -32 c-11 -20 -33 -38 -60 -49 -70 -29
-224 -173 -204 -191 2 -2 17 -6 33 -10 26 -6 28 -5 17 8 -8 9 -10 24 -6 37 l7
22 17 -20 c9 -11 27 -26 41 -33 23 -12 24 -12 11 4 -10 12 -11 20 -4 27 16 16
48 6 47 -14 -3 -26 20 -15 30 16 7 20 5 36 -7 61 -17 37 -11 46 35 46 18 0 19
-5 16 -48 -3 -26 -8 -56 -12 -67 -5 -14 1 -10 18 10 14 17 26 39 26 50 0 44
12 65 36 65 35 0 29 18 -7 22 l-31 3 30 18 30 17 30 -41 c39 -53 126 -273 146
-369 9 -47 17 -166 22 -320 7 -250 15 -313 29 -224 7 47 8 48 17 21 7 -19 15
-26 25 -23 8 3 18 6 23 6 31 0 54 83 32 116 -20 30 -72 18 -72 -16 0 -11 -4
-20 -10 -20 -13 0 -12 71 1 130 5 25 12 63 15 85 11 82 13 85 43 85 15 0 40 9
55 21 16 13 33 18 46 14 34 -11 61 3 55 28 -6 22 10 126 39 262 21 94 20 97
-15 120 -17 11 -34 27 -39 35 -12 24 10 142 32 167 21 22 37 79 38 127 0 16 7
37 15 46 9 10 18 40 22 69 5 46 1 61 -36 141 l-42 91 21 26 c11 14 20 34 20
43 0 31 -76 114 -154 170 -42 29 -74 58 -72 64 23 54 29 89 18 107 -9 14 -9
35 0 89 10 59 10 78 -2 113 l-15 42 -102 3 -102 3 -7 -51 c-7 -56 -15 -62 -32
-24 -8 17 -9 31 -2 44 5 10 10 21 10 24 0 3 -339 6 -754 6 l-754 0 19 -61 c10
-33 19 -75 18 -92 l-1 -32 -10 28 c-7 21 -15 26 -29 22 -13 -5 -28 3 -49 26
-16 18 -32 30 -35 27 -7 -6 -75 60 -75 73 0 5 -15 9 -33 9 -32 0 -33 -1 -46
-61z m477 -33 c23 -23 59 -61 80 -86 l37 -45 -35 24 c-19 14 -54 40 -77 58
-24 19 -43 31 -43 26 -1 -16 -29 42 -30 60 0 23 11 16 68 -37z m763 -130 c28
-54 48 -100 45 -103 -2 -3 -27 41 -55 97 -28 55 -60 115 -71 133 l-22 32 27
-30 c14 -16 49 -74 76 -129z m-445 16 c41 -39 99 -111 140 -172 38 -58 78
-118 89 -135 l20 -30 -33 24 c-56 40 -76 62 -136 156 -32 50 -97 130 -144 179
-77 78 -82 86 -47 67 22 -12 72 -52 111 -89z m320 30 c17 -26 39 -60 49 -77
l19 -30 -23 20 c-13 11 -40 43 -60 70 -52 70 -54 74 -34 68 10 -2 32 -25 49
-51z m728 -41 c-10 -121 -21 -142 -19 -35 2 127 4 136 16 129 7 -5 8 -35 3
-94z m-1319 -2 c14 -27 30 -49 35 -49 6 0 10 -5 10 -12 0 -6 -14 1 -31 18 -31
29 -59 74 -59 94 0 21 21 -2 45 -51z m431 -19 c28 -33 28 -34 3 -15 -31 23
-70 72 -47 59 9 -5 28 -25 44 -44z m-309 -60 c8 -12 12 -24 9 -27 -8 -8 -28
11 -50 48 l-19 32 22 -15 c13 -9 30 -26 38 -38z m-397 20 c6 -11 8 -20 6 -20
-3 0 -10 9 -16 20 -6 11 -8 20 -6 20 3 0 10 -9 16 -20z m1075 -58 c4 -26 9
-56 11 -67 5 -19 4 -19 -7 -2 -13 22 -29 128 -18 121 4 -2 11 -26 14 -52z
m382 26 c-3 -8 -6 -5 -6 6 -1 11 2 17 5 13 3 -3 4 -12 1 -19z m-320 -90 c-2
-13 -4 -5 -4 17 -1 22 1 32 4 23 2 -10 2 -28 0 -40z m275 30 c-7 -7 -12 -8
-12 -2 0 6 3 14 7 17 3 4 9 5 12 2 2 -3 -1 -11 -7 -17z m-61 -75 c-8 -15 -10
-15 -11 -2 0 17 10 32 18 25 2 -3 -1 -13 -7 -23z m139 -28 c0 -15 -18 -30 -27
-22 -2 3 -2 15 2 26 7 23 25 19 25 -4z m-74 -21 c-4 -9 -9 -15 -11 -12 -3 3
-3 13 1 22 4 9 9 15 11 12 3 -3 3 -13 -1 -22z m-906 -198 l25 -17 -25 12 c-14
6 -36 21 -50 33 -14 11 -9 3 10 -18 l35 -38 -30 15 c-48 25 -135 126 -150 175
-5 16 21 -5 77 -60 45 -47 94 -92 108 -102z m763 164 c-3 -11 -9 -23 -14 -26
-5 -3 -9 -14 -9 -24 0 -10 -12 -28 -27 -40 -25 -19 -28 -20 -31 -5 -2 9 3 24
11 33 8 9 18 27 22 40 4 13 16 27 28 32 12 5 23 9 24 9 0 1 -1 -8 -4 -19z
m207 14 c0 -7 -39 -64 -57 -82 -7 -7 -13 -11 -13 -7 0 15 32 80 43 87 14 9 27
10 27 2z m-88 -26 c-7 -7 -12 -8 -12 -2 0 6 3 14 7 17 3 4 9 5 12 2 2 -3 -1
-11 -7 -17z m-44 -91 c14 5 15 4 4 -8 -7 -8 -18 -14 -24 -14 -6 0 -13 -6 -16
-14 -3 -10 0 -12 12 -8 9 4 16 2 16 -3 0 -6 -7 -10 -15 -10 -18 0 -20 -26 -2
-33 8 -3 9 -8 2 -15 -7 -7 -21 -6 -47 5 -38 15 -57 41 -35 47 40 12 48 17 54
33 8 22 27 36 31 23 2 -5 11 -6 20 -3z m-1348 -74 c0 -5 9 -19 20 -31 12 -12
17 -22 11 -22 -9 0 -71 91 -71 105 0 4 9 -4 20 -18 11 -14 20 -29 20 -34z
m1538 45 c18 -18 14 -28 -10 -28 -19 0 -20 -2 -8 -11 13 -9 13 -10 0 -6 -8 2
-15 8 -15 13 0 5 -3 14 -7 20 -15 23 19 33 40 12z m-468 -48 c-16 -39 -24 -31
-16 16 5 26 10 34 18 26 8 -8 7 -20 -2 -42z m-674 12 c-4 -3 -14 2 -24 12 -16
18 -16 18 6 6 13 -6 21 -14 18 -18z m1074 16 c0 -4 -11 -8 -25 -8 -14 0 -25 4
-25 10 0 5 11 9 25 8 14 -1 25 -6 25 -10z m-625 -8 c3 -5 1 -10 -4 -10 -6 0
-11 5 -11 10 0 6 2 10 4 10 3 0 8 -4 11 -10z m29 -16 c3 -8 2 -12 -4 -9 -6 3
-10 10 -10 16 0 14 7 11 14 -7z m531 6 c3 -5 3 -10 -2 -10 -4 0 -18 -3 -30 -6
-17 -5 -23 -2 -23 10 0 18 45 23 55 6z m-375 -29 c0 -31 -15 -50 -22 -29 -6
18 3 58 13 58 5 0 9 -13 9 -29z m-360 -41 c0 -4 9 -10 20 -13 11 -3 20 -10 20
-16 0 -17 -30 -13 -36 4 -4 8 -13 15 -20 15 -18 0 -91 36 -99 49 -3 6 22 1 55
-10 33 -12 60 -24 60 -29z m466 0 c8 0 14 5 14 12 0 6 3 9 6 5 4 -3 3 -14 -1
-24 -4 -10 -7 -37 -6 -60 6 -111 -35 -97 -45 15 -4 39 -3 79 2 89 7 15 8 14
12 -9 2 -16 10 -28 18 -28z m434 -4 c0 -5 -11 1 -25 14 -13 12 -22 27 -18 33
6 10 42 -30 43 -47z m-1009 9 c24 -14 40 -25 36 -25 -11 0 -87 39 -87 45 0 8
7 6 51 -20z m943 -11 c14 -15 26 -31 26 -37 0 -6 11 -25 25 -43 27 -35 30 -44
16 -44 -19 0 -111 106 -111 127 0 30 11 29 44 -3z m-173 -18 c25 -3 45 -16 77
-51 54 -60 46 -73 -11 -17 -23 23 -60 48 -82 55 -25 9 -41 21 -43 33 -3 18 -2
18 11 1 8 -9 29 -19 48 -21z m-1211 9 c7 -8 16 -12 21 -10 4 3 42 -17 83 -44
41 -27 100 -59 131 -72 30 -12 55 -25 55 -29 0 -13 -78 3 -140 28 -95 38 -139
70 -171 125 -12 21 4 23 21 2z m348 -11 c4 2 34 -11 67 -30 33 -18 57 -34 53
-34 -14 0 -93 34 -99 43 -3 5 -9 8 -13 8 -16 -2 -23 1 -46 20 l-25 21 28 -16
c15 -9 31 -15 35 -12z m622 17 c0 -5 -7 -11 -15 -15 -15 -5 -20 5 -8 17 9 10
23 9 23 -2z m83 -41 c3 -11 1 -20 -4 -20 -5 0 -9 9 -9 20 0 11 2 20 4 20 2 0
6 -9 9 -20z m-426 4 c-3 -3 -12 -4 -19 -1 -8 3 -5 6 6 6 11 1 17 -2 13 -5z
m343 -50 c0 -34 -4 -53 -10 -49 -5 3 -11 18 -11 33 -1 15 -10 -31 -19 -103
l-18 -130 1 127 c2 119 3 128 26 152 14 14 26 26 28 26 2 0 3 -25 3 -56z
m-120 26 c0 -11 -4 -20 -9 -20 -5 0 -7 9 -4 20 3 11 7 20 9 20 2 0 4 -9 4 -20z
m49 -27 c-1 -21 -4 -49 -9 -63 -5 -17 -7 -5 -6 38 0 34 4 62 8 62 5 0 8 -17 7
-37z m547 -64 c10 2 84 -117 83 -133 0 -6 -8 0 -17 14 -9 14 -44 56 -76 95
-89 105 -95 114 -44 66 25 -24 50 -43 54 -42z m-389 49 c-3 -8 -6 -5 -6 6 -1
11 2 17 5 13 3 -3 4 -12 1 -19z m-292 -8 c-10 -11 -24 -20 -32 -20 -11 0 -11
4 -3 20 6 11 20 20 32 20 20 0 21 -1 3 -20z m-402 -30 c9 0 17 -7 17 -16 0
-11 -5 -14 -16 -10 -9 3 -24 6 -34 6 -10 0 -21 7 -24 16 -5 13 -2 15 16 10 13
-3 31 -6 41 -6z m146 -10 c22 -1 24 -2 8 -11 -25 -15 -119 -7 -125 10 -4 11 5
13 43 8 26 -4 60 -7 74 -7z m136 0 c-3 -5 -13 -10 -21 -10 -8 0 -14 5 -14 10
0 6 9 10 21 10 11 0 17 -4 14 -10z m26 -53 c-10 -9 -11 -8 -5 6 3 10 9 15 12
12 3 -3 0 -11 -7 -18z m-301 3 c11 -7 7 -10 -20 -12 -19 -1 -42 -2 -50 -4 -8
-1 -31 -2 -50 -3 -33 -2 -34 -2 -16 -16 19 -15 19 -15 -1 -15 -11 0 -26 6 -32
14 -17 20 12 39 49 34 17 -3 33 -1 36 4 7 11 66 10 84 -2z m-259 -18 c-7 -2
-18 1 -23 6 -8 8 -4 9 13 5 13 -4 18 -8 10 -11z m409 -6 c0 -8 -51 -13 -56 -5
-3 5 9 9 25 9 17 0 31 -2 31 -4z m-105 -26 c-28 -12 -37 -12 -30 0 3 6 16 10
28 9 21 0 21 -1 2 -9z m426 -71 l-8 -74 -2 62 c-1 56 6 99 15 90 2 -2 0 -37
-5 -78z m46 49 c-3 -7 -5 -2 -5 12 0 14 2 19 5 13 2 -7 2 -19 0 -25z m-597
-38 c19 -6 11 -8 -32 -9 -33 -1 -58 3 -58 9 0 12 54 12 90 0z m-325 -120 c3
-6 -1 -7 -9 -4 -18 7 -21 14 -7 14 6 0 13 -4 16 -10z m1792 -47 c-3 -10 -5 -2
-5 17 0 19 2 27 5 18 2 -10 2 -26 0 -35z m-1089 12 c-6 -14 -15 -25 -20 -25
-11 0 -10 7 4 30 18 29 30 25 16 -5z m-503 -5 c3 -5 2 -10 -4 -10 -5 0 -13 5
-16 10 -3 6 -2 10 4 10 5 0 13 -4 16 -10z m-155 -25 c57 -20 81 -20 54 0 -17
13 -14 13 25 0 55 -19 165 -21 156 -2 -4 6 0 4 8 -5 11 -14 30 -18 90 -18 44
0 77 -4 79 -10 2 -7 23 -6 63 5 72 18 86 19 62 1 -10 -8 -52 -22 -93 -31 -60
-13 -85 -14 -125 -6 -27 6 -58 11 -67 11 -15 -1 -14 -3 3 -16 19 -15 17 -16
-25 -11 -113 12 -239 49 -265 77 -22 24 -20 24 35 5z m600 -4 c0 -5 -7 -12
-16 -15 -24 -9 -28 -7 -14 9 14 17 30 20 30 6z m1140 -53 c0 -38 -5 -34 -13
10 -4 21 -3 31 3 27 6 -3 10 -20 10 -37z m-976 -68 c-4 -25 -11 -52 -16 -60
-6 -10 -8 -5 -4 19 3 18 6 52 6 75 0 30 3 37 10 26 6 -8 7 -35 4 -60z m336 40
c0 -5 -7 -10 -15 -10 -8 0 -15 5 -15 10 0 6 7 10 15 10 8 0 15 -4 15 -10z
m-444 -85 c9 -51 2 -59 -62 -73 -33 -7 -77 -22 -98 -32 -49 -25 -63 -25 -103
0 -39 23 -42 40 -8 40 13 0 46 14 72 30 26 17 54 30 63 30 8 0 31 9 50 19 55
31 78 27 86 -14z m-59 -125 c2 -23 -7 -26 -25 -8 -9 9 -12 7 -12 -10 0 -14 13
-30 35 -44 43 -28 45 -42 5 -35 -43 9 -111 57 -108 76 3 15 56 39 88 40 9 1
16 -8 17 -19z m-194 -20 c9 -11 17 -26 17 -33 0 -23 40 -49 67 -42 13 3 39 1
56 -4 18 -6 44 -13 59 -16 21 -4 28 -12 32 -38 5 -29 23 -147 41 -264 9 -56
-4 -55 -63 5 -66 66 -242 352 -242 395 0 23 12 22 33 -3z m233 -37 c-10 -10
-19 5 -10 18 6 11 8 11 12 0 2 -7 1 -15 -2 -18z m70 -266 c18 -129 13 -171 -6
-57 -17 103 -27 225 -20 268 4 29 6 23 7 -28 2 -36 10 -118 19 -183z"/>
<path d="M1813 827 c-4 -7 -43 -26 -85 -41 -42 -16 -85 -37 -94 -47 -9 -11
-30 -19 -45 -19 -15 0 -55 -16 -88 -35 -44 -26 -67 -34 -86 -29 -22 5 -25 3
-25 -19 0 -36 40 -79 76 -83 16 -1 56 -14 89 -28 33 -14 74 -25 90 -25 25 1
23 2 -12 9 -54 11 -98 34 -117 62 -9 12 -14 23 -13 24 2 2 32 -6 67 -17 39
-12 75 -17 93 -13 33 7 97 60 97 80 0 23 42 55 56 43 14 -12 22 19 27 100 2
45 -14 65 -30 38z m-13 -51 c0 -8 -21 -33 -47 -56 -27 -23 -42 -39 -35 -35 18
9 15 -9 -8 -38 -24 -30 -81 -51 -116 -43 -28 7 -32 22 -6 30 9 3 1 3 -18 0
-64 -10 -103 -9 -107 2 -5 15 64 51 114 59 23 3 63 20 90 37 42 27 104 55 126
57 4 1 7 -5 7 -13z"/>
<path d="M1400 246 c0 -14 14 -26 108 -102 69 -54 78 -45 37 36 -15 29 -37 56
-55 65 -37 19 -90 20 -90 1z"/>
<path d="M2088 249 c-10 -5 -31 -35 -48 -67 -16 -31 -44 -66 -61 -77 -38 -25
-76 -105 -49 -105 6 0 10 11 10 25 0 15 7 28 18 32 9 4 30 16 45 27 28 20 68
23 171 14 16 -2 31 2 33 10 3 7 -5 12 -21 12 -29 0 -60 38 -51 62 4 9 -2 29
-12 46 -15 24 -22 28 -35 21z"/>
<path d="M2485 132 c-76 -32 -153 -73 -225 -122 -10 -7 40 -10 163 -10 l177 0
0 85 c0 61 -3 85 -12 85 -7 0 -54 -18 -103 -38z"/>
<path d="M1128 105 c44 -37 186 -75 168 -46 -6 9 -169 71 -187 71 -6 0 3 -11
19 -25z"/>
<path d="M2197 62 c-21 -22 -21 -32 -4 -32 18 0 49 34 40 43 -10 11 -19 8 -36
-11z"/>
<path d="M2018 54 c-15 -8 -32 -23 -38 -34 -9 -18 -8 -20 15 -20 15 0 35 5 46
10 13 8 25 7 40 0 11 -6 30 -10 42 -8 21 3 21 4 -10 36 -35 35 -54 39 -95 16z"/>
<path d="M1698 30 l-33 -29 89 -1 c79 0 87 2 76 16 -16 18 -36 29 -72 38 -22
5 -34 0 -60 -24z"/>
</g>
</svg>
